<?xml version="1.0" encoding="utf-8"?>
<!-- Generator: Adobe Illustrator 20.1.0, SVG Export Plug-In . SVG Version: 6.00 Build 0)  -->
<svg version="1.1" id="logo-blue" xmlns="http://www.w3.org/2000/svg" xmlns:xlink="http://www.w3.org/1999/xlink" x="0px" y="0px"
	 viewBox="0 0 157 30" enable-background="new 0 0 157 30" xml:space="preserve">
<g>
	<g>
		<path fill="#0363FF" d="M25.2,5.7l-8.8-5c-1.5-0.9-3.5-0.9-5,0l-8.8,5C1,6.6,0,8.2,0,10V20c0,1.8,1,3.4,2.5,4.3l8.8,5
			c0.8,0.4,1.6,0.7,2.5,0.7c0.9,0,1.7-0.2,2.5-0.7l8.8-5c1.5-0.9,2.5-2.5,2.5-4.3V10C27.7,8.2,26.7,6.6,25.2,5.7z M12.8,3.1
			c0.3-0.2,0.7-0.3,1.1-0.3c0.4,0,0.7,0.1,1.1,0.3L23.4,8l-8.5,4.8c-0.7,0.4-1.5,0.4-2.1,0L4.4,7.9L12.8,3.1z M24.8,20
			c0,0.8-0.4,1.5-1.1,1.8l-8.8,5c-0.7,0.4-1.5,0.4-2.1,0l-8.8-5c-0.7-0.4-1.1-1.1-1.1-1.8v-9.8l8.5,4.9c0.8,0.4,1.6,0.7,2.5,0.7
			c0.9,0,1.7-0.2,2.5-0.7l8.5-4.8V20z M12.8,19.8l-4.6-2.6l-1.4,2.4l4.6,2.6c0.8,0.4,1.6,0.7,2.5,0.7c0.9,0,1.7-0.2,2.5-0.7l4.5-2.6
			l-1.4-2.4l-4.5,2.6C14.2,20.2,13.4,20.2,12.8,19.8z M50.8,11.6h-6.4V5.7h-2.9v14.5h2.9v-6h6.4v6h2.9V5.7h-2.9V11.6z M61.3,16.1
			l-2.7-5.9h-3.1l4.3,8.8l-2.4,5.2h2.9l6.4-14.1h-2.9L61.3,16.1z M93.5,9.9c-1,0-2.1,0.3-2.8,1.1V5.4H88v14.8h2.8v-5.9
			c0.1-1.1,0.7-2,1.9-2c1.3,0,1.9,0.9,1.9,2v5.9h2.8v-6.4C97.3,11.7,96.1,9.9,93.5,9.9z M104.6,9.9c-3,0-5.4,2.2-5.4,5.3
			c0,3.1,2.3,5.3,5.4,5.3c3,0,5.4-2.3,5.4-5.3C110,12.1,107.7,9.9,104.6,9.9z M104.6,18.1c-1.3,0-2.6-1-2.6-2.9
			c0-1.9,1.2-2.9,2.6-2.9c1.3,0,2.6,1,2.6,2.9C107.2,17.1,106,18.1,104.6,18.1z M116.5,14.2l-1.5-0.3c-0.6-0.1-0.9-0.4-0.9-0.9
			c0-0.6,0.6-1,1.3-1c1.2,0,1.6,0.8,1.7,1.4l2.3-0.5c-0.1-1.1-1.1-2.9-4-2.9c-2.2,0-3.8,1.5-3.8,3.3c0,1.4,0.9,2.6,2.9,3l1.3,0.3
			c0.8,0.2,1.1,0.5,1.1,1c0,0.5-0.4,1-1.3,1c-1.2,0-1.8-0.7-1.9-1.5l-2.4,0.5c0.1,1.1,1.2,3.1,4.3,3.1c2.7,0,4-1.7,4-3.3
			C119.5,15.8,118.5,14.6,116.5,14.2z M125.1,7.2h-2.5v1.4c0,0.9,0,1,0,1.6l-2.1,0v2.4h1.8v4.7c0,1.9,1.2,3.1,3.2,3.1
			c0.8,0,1.3-0.1,1.6-0.2v-2.3c-0.1,0-0.5,0.1-0.9,0.1c-0.8,0-1.2-0.3-1.2-1.2v-4.2h2.1v-2.4h-2.1V7.2z M130.9,5.2
			c-0.9,0-1.7,0.8-1.7,1.7c0,0.9,0.8,1.7,1.7,1.7c1,0,1.7-0.8,1.7-1.7C132.6,6,131.9,5.2,130.9,5.2z M129.5,20.3h2.8V10.2h-2.8V20.3
			z M140.9,9.9c-1.1,0-2.3,0.5-2.9,1.5v-1.3h-2.7v10.1h2.8v-5.8c0-1.2,0.7-2.1,1.9-2.1c1.3,0,1.9,0.9,1.9,2v5.9h2.8v-6.4
			C144.6,11.7,143.4,9.9,140.9,9.9z M157,15.5c0-0.1,0-0.2,0-0.3c0-3.1-2.3-5.3-5.4-5.3h0h0c-3,0-5.4,2.2-5.4,5.3
			c0,3.1,2.3,5.3,5.4,5.3h0h0c1,0,1.8-0.2,2.6-0.7c-0.1,1.7-1.1,2.5-2.7,2.5c-1.3,0-2.2-0.8-2.4-1.9l-2.5,0.7c0.3,1.9,2.2,3.6,5,3.6
			c3.8,0,5.4-2.5,5.4-5.3L157,15.5L157,15.5z M151.7,18.1c-0.3,0-0.7-0.1-1-0.2c-0.2-0.1-0.3-0.1-0.4-0.2c-0.7-0.5-1.2-1.3-1.2-2.5
			c0-1.2,0.5-2,1.2-2.5c0.1-0.1,0.3-0.2,0.4-0.2c0.3-0.1,0.6-0.2,1-0.2c1.3,0,2.6,1,2.6,2.9C154.3,17.1,153,18.1,151.7,18.1z
			 M80.4,9.9c-1.4,0-2.6,0.5-3.6,1.3c0.2,0.4,0.4,1.1,0.5,1.8c-0.8-1.9-2.6-3.1-4.9-3.1c-3,0-5.4,2.2-5.4,5.3v0v8.9h2.8v-4.2
			c0.8,0.4,1.6,0.6,2.6,0.6c1.4,0,2.7-0.5,3.6-1.3c-0.2-0.5-0.4-1-0.4-1.6c0.1,0.2,0.2,0.4,0.3,0.5c0,0.1,0.1,0.2,0.1,0.2
			c0.1,0.2,0.3,0.4,0.4,0.5c0,0,0,0,0,0c1,1.1,2.4,1.7,4,1.7c3,0,5.4-2.3,5.4-5.3C85.8,12.1,83.5,9.9,80.4,9.9z M72.4,18.1
			c-1.3,0-2.6-1-2.6-2.9c0-1.9,1.2-2.9,2.6-2.9c1.3,0,2.6,1,2.6,2.9C75,17.1,73.8,18.1,72.4,18.1z M80.4,18.1c-1.3,0-2.6-1-2.6-2.9
			c0-1.9,1.2-2.9,2.6-2.9c1.3,0,2.6,1,2.6,2.9C83,17.1,81.8,18.1,80.4,18.1z"/>
	</g>
</g>
</svg>
